<svg xmlns="http://www.w3.org/2000/svg" width="230" height="230" viewBox="0 0 230 230" version="1.1"><path d="M 31 30 L 31 41 18.500 41 L 6 41 6 80 L 6 119 18.500 119 L 31 119 31 128.500 L 31 138 42.500 138 L 54 138 54 151 L 54 164 66.500 164 L 79 164 79 175 L 79 186 88.470 186 L 97.940 186 98.220 198.750 L 98.500 211.500 113.250 211.777 L 128 212.053 128 199.027 L 128 186 139 186 L 150 186 150 175 L 150 164 163 164 L 176 164 176 151 L 176 138 187 138 L 198 138 198 128.500 L 198 119 211 119 L 224 119 224 80 L 224 41 211 41 L 198 41 198 30 L 198 19 162.500 19 L 127 19 127 30 L 127 41 113 41 L 99 41 99 30 L 99 19 65 19 L 31 19 31 30 M 54 54.500 L 54 67 66.500 67 L 79 67 79 54.500 L 79 42 66.500 42 L 54 42 54 54.500 M 32 78.500 L 32 89 43 89 L 54 89 54 78.500 L 54 68 43 68 L 32 68 32 78.500" stroke="none" fill="#fffcfc" fill-rule="evenodd"/><path d="" stroke="none" fill="#fcfcfc" fill-rule="evenodd"/></svg>